<svg width="20" height="20" viewBox="0 0 20 20" fill="none" xmlns="http://www.w3.org/2000/svg">
<path fill-rule="evenodd" clip-rule="evenodd" d="M6.00012 2.00012C5.73491 2.00012 5.48055 2.10548 5.29302 2.29302C5.10548 2.48055 5.00012 2.73491 5.00012 3.00012V4.00012H4.00012C3.46969 4.00012 2.96098 4.21084 2.58591 4.58591C2.21084 4.96098 2.00012 5.46969 2.00012 6.00012V16.0001C2.00012 16.5306 2.21084 17.0393 2.58591 17.4143C2.96098 17.7894 3.46969 18.0001 4.00012 18.0001H16.0001C16.5306 18.0001 17.0393 17.7894 17.4143 17.4143C17.7894 17.0393 18.0001 16.5306 18.0001 16.0001V6.00012C18.0001 5.46969 17.7894 4.96098 17.4143 4.58591C17.0393 4.21084 16.5306 4.00012 16.0001 4.00012H15.0001V3.00012C15.0001 2.73491 14.8948 2.48055 14.7072 2.29302C14.5197 2.10548 14.2653 2.00012 14.0001 2.00012C13.7349 2.00012 13.4806 2.10548 13.293 2.29302C13.1055 2.48055 13.0001 2.73491 13.0001 3.00012V4.00012H7.00012V3.00012C7.00012 2.73491 6.89476 2.48055 6.70723 2.29302C6.51969 2.10548 6.26534 2.00012 6.00012 2.00012ZM6.00012 7.00012C5.73491 7.00012 5.48055 7.10548 5.29302 7.29302C5.10548 7.48055 5.00012 7.73491 5.00012 8.00012C5.00012 8.26534 5.10548 8.51969 5.29302 8.70723C5.48055 8.89476 5.73491 9.00012 6.00012 9.00012H14.0001C14.2653 9.00012 14.5197 8.89476 14.7072 8.70723C14.8948 8.51969 15.0001 8.26534 15.0001 8.00012C15.0001 7.73491 14.8948 7.48055 14.7072 7.29302C14.5197 7.10548 14.2653 7.00012 14.0001 7.00012H6.00012Z" fill="#7E8083"/>
</svg>
