<svg width="24" height="24" viewBox="0 0 24 24" fill="none" xmlns="http://www.w3.org/2000/svg">
<path d="M11 3.18008V20.8201C11 21.4601 10.41 21.9401 9.79 21.8001C5.32 20.8001 2 16.7901 2 12.0001C2 7.21008 5.32 3.20008 9.79 2.20008C9.93605 2.16832 10.0874 2.16978 10.2328 2.20434C10.3782 2.23891 10.514 2.30569 10.6301 2.39976C10.7463 2.49383 10.8398 2.61278 10.9038 2.74784C10.9679 2.8829 11.0007 3.03061 11 3.18008ZM13.03 3.18008V9.99008C13.03 10.5401 13.48 10.9901 14.03 10.9901H20.82C21.46 10.9901 21.94 10.4001 21.8 9.77008C20.95 6.01008 18 3.05008 14.25 2.20008C13.62 2.06008 13.03 2.54008 13.03 3.18008ZM13.03 14.0101V20.8201C13.03 21.4601 13.62 21.9401 14.25 21.8001C18.01 20.9501 20.96 17.9801 21.81 14.2201C21.95 13.6001 21.46 13.0001 20.83 13.0001H14.04C13.48 13.0101 13.03 13.4601 13.03 14.0101Z" fill="white"/>
</svg>
